<svg viewBox="0 0 111 21" xmlns="http://www.w3.org/2000/svg">
<path d="m1.421 3.3063h3.7831v15.749h2.128v-15.749h3.7831v-1.7499h-9.6942v1.7499zm13.827 7.4994h5.2017v-1.7499h-5.2017v-5.7496h5.9111v-1.7499h-8.039v17.499h8.039v-1.7499h-5.9111v-6.4997zm12.713-2.2496-2.6008-6.9996h-2.128l3.1919 8.4995s-3.5467 8.9993-3.5467 8.9993h2.128l2.9555-7.4994s2.9555 7.4994 2.9555 7.4994h2.128l-3.5466-8.9993 3.192-8.4995h-2.128l-2.6009 6.9996zm14.241-6.9996v7.7494h-4.9652v-7.7494h-2.128v17.499h2.128v-7.9996h4.9652v7.9996h2.128v-17.499h-2.128zm7.6725 0.17504c-0.62291 0.2836-1.1549 0.76666-1.596 1.4499-0.44145 0.68364-0.77655 1.6041-1.0049 2.7624-0.22873 1.1584-0.34288 2.6123-0.34288 4.3622 0 1.7499 0.11415 3.2039 0.34288 4.362 0.22832 1.1586 0.56341 2.0793 1.0049 2.7624 0.4411 0.68364 0.97311 1.1667 1.596 1.4499 0.62248 0.28322 1.3359 0.42484 2.1398 0.42484 0.80396 0 1.517-0.14161 2.1398-0.42484 0.62248-0.28322 1.1545-0.76628 1.5959-1.4499 0.4411-0.68308 0.77628-1.6037 1.0049-2.7624 0.2283-1.1581 0.34282-2.6121 0.34282-4.362 0-1.7499-0.11452-3.2037-0.34282-4.3622-0.22867-1.1582-0.56384-2.0787-1.0049-2.7624-0.44145-0.68327-0.97346-1.1663-1.5959-1.4499-0.62285-0.28322-1.3359-0.42484-2.1398-0.42484-0.80388 0-1.5173 0.14161-2.1398 0.42484zm1.0285 15.749c-0.36284-0.21636-0.67799-0.60814-0.94579-1.1748-0.26822-0.56645-0.48473-1.3331-0.65024-2.2998-0.16551-0.96649-0.24826-2.1999-0.24826-3.6998 0-1.5001 0.082748-2.7331 0.24826-3.6999 0.16551-0.9663 0.38202-1.733 0.65024-2.2996 0.26779-0.56645 0.58295-0.95823 0.94579-1.175 0.36235-0.21636 0.733-0.32492 1.1112-0.32492 0.3783 0 0.74844 0.10856 1.1113 0.32492 0.36241 0.21674 0.67757 0.60852 0.94579 1.175 0.26785 0.56664 0.48465 1.3333 0.65016 2.2996 0.16559 0.96687 0.24826 2.1999 0.24826 3.6999 0 1.4999-0.082672 2.7333-0.24826 3.6998-0.16551 0.96668-0.38231 1.7333-0.65016 2.2998-0.26822 0.56664-0.58337 0.95842-0.94579 1.1748-0.36285 0.21674-0.733 0.32492-1.1113 0.32492-0.37822 0-0.74887-0.10818-1.1112-0.32492zm16.865-0.67482 3.4284-10.749h0.11824l0.70931 12.999h2.128l-0.94577-17.499h-2.6009l-3.8539 11.999h-0.094556l-3.8541-11.999h-2.6009l-0.94577 17.499h2.128l0.7094-12.999h0.11815l3.4284 10.749h2.128zm16.253-2.2498s1.0639 4.4997 1.0639 4.4997h2.128l-4.0194-17.499h-3.0738l-4.0195 17.499h2.1279l1.064-4.4997h4.7288zm-0.3547-1.7499h-4.0195l1.9625-8.7495h0.094635s1.9624 8.7495 1.9624 8.7495zm7.7836-0.62505v-9.2493h1.6551c0.53564 0 0.9967 0.070994 1.3831 0.21242 0.3861 0.14199 0.70532 0.38765 0.95768 0.73755 0.25198 0.35009 0.43744 0.82488 0.5556 1.4248 0.11823 0.60007 0.17731 1.35 0.17731 2.2498 0 0.90001-0.059084 1.6499-0.17731 2.25-0.11816 0.59988-0.30362 1.0749-0.5556 1.4249-0.25235 0.3499-0.57157 0.59575-0.95768 0.73717-0.38644 0.14199-0.8475 0.21261-1.3831 0.21261h-1.6551zm0 1.5001c0.29925 0.066674 0.67755 0.1249 1.1349 0.17486 0.45706 0.049959 0.86676 0.074938 1.2295 0.074938 0.77212 0 1.4382-0.10386 1.9979-0.31252 0.55939-0.2081 1.0245-0.558 1.395-1.0499 0.37015-0.49132 0.64618-1.1457 0.82758-1.9623 0.18103-0.81643 0.27194-1.8331 0.27194-3.0499 0-1.183-0.094575-2.1747-0.28381-2.9746-0.18912-0.80009-0.48874-1.4413-0.89844-1.9249-0.41007-0.48325-0.9458-0.82882-1.6078-1.0375-0.66211-0.2081-1.466-0.31234-2.4118-0.31234-0.70932 0-1.3676 0.037374-1.9743 0.1125-0.60699 0.074939-1.2099 0.20415-1.8087 0.38727v17.249h2.128v-5.3745zm8.2492-10.374h3.7831v15.749h2.128v-15.749h3.7831v-1.7499h-9.6942v1.7499z" fill="#fff" fill-rule="evenodd"/>
</svg>
